<svg width="41" height="41" viewBox="0 0 41 41" fill="none" xmlns="http://www.w3.org/2000/svg">
<path d="M22.0178 17.1748C21.8508 17.5544 21.6838 17.9341 21.5319 18.3213C20.4006 21.1913 19.2541 24.0765 18.1836 26.9541C18.0916 27.1966 18.0453 27.454 18.0469 27.7133C18.0461 28.0222 18.133 28.325 18.2975 28.5865C18.4952 28.9047 18.7794 29.16 19.1169 29.3227C19.4543 29.4854 19.8311 29.5486 20.2032 29.5052C20.5832 29.5166 20.9567 29.4054 21.2685 29.188C21.5803 28.9705 21.8138 28.6585 21.9343 28.298C22.0653 27.8002 22.0653 27.2771 21.9343 26.7794C21.2475 24.0445 21.1852 21.1899 21.7521 18.4276C21.8128 17.9796 21.904 17.5772 22.0178 17.1748Z" fill="#1D1D1B"/>
<path d="M29.7702 3.28711L29.7246 3.34026L29.7702 3.28711Z" fill="#1D1D1B"/>
<path d="M16.2932 27.7135C16.2905 27.291 16.3651 26.8716 16.5134 26.4759C17.6219 23.5908 18.7305 20.7056 19.8693 17.828C22.018 12.3309 25.8143 7.7602 30.7647 3.91835L30.833 3.8652C30.9621 3.76649 31.1443 3.72853 31.2355 3.8652C31.2688 3.91167 31.2868 3.96743 31.2868 4.02464C31.2868 4.08185 31.2688 4.13762 31.2355 4.18409C31.0001 4.46501 30.7267 4.72316 30.4762 4.99649C27.0069 8.87468 24.5959 13.5817 23.4758 18.6632C22.9451 21.2321 23.0048 23.8879 23.6505 26.4304C23.8478 27.1614 23.8478 27.9316 23.6505 28.6626C23.4211 29.3414 22.9869 29.9323 22.4075 30.3538C21.8282 30.7754 21.1324 31.0069 20.416 31.0163C19.6956 31.1123 18.9629 30.9994 18.3047 30.6912C17.6466 30.383 17.0908 29.8924 16.7032 29.2776C16.4277 28.8029 16.286 28.2624 16.2932 27.7135V27.7135Z" fill="#1D1D1B"/>
</svg>
