<svg width="25" height="32" viewBox="0 0 25 32" fill="none" xmlns="http://www.w3.org/2000/svg">
<path d="M12.002 6.64565e-06C5.36356 6.64565e-06 0.00195312 5.27862 0.00195312 11.707C0.00195312 14.0254 0.742351 15.8701 1.88997 17.6215L10.9417 31.4379L10.9415 31.4382C11.1669 31.7869 11.5687 32 12.002 32C12.4352 32 12.837 31.7869 13.0625 31.4382L22.1142 17.6218C23.2616 15.8701 24.002 14.0254 24.002 11.707C24.002 5.27861 18.6404 0 12.0019 0L12.002 6.64565e-06ZM12.002 2.34155C17.2472 2.34155 21.5193 6.49734 21.5193 11.7072C21.5193 13.5832 20.998 14.8568 19.9936 16.3899L12.0022 28.5847L4.01075 16.3899C3.00626 14.8568 2.48473 13.5832 2.48473 11.7072C2.48473 6.49741 6.75687 2.34155 12.002 2.34155ZM12.002 5.46349C8.58888 5.46349 5.79509 8.0982 5.79509 11.317C5.79509 14.5358 8.58888 17.1705 12.002 17.1705C15.4152 17.1705 18.209 14.5358 18.209 11.317C18.209 8.0982 15.4152 5.46349 12.002 5.46349ZM12.002 7.80504C14.0736 7.80504 15.726 9.36368 15.726 11.317C15.726 13.2703 14.0733 14.829 12.002 14.829C9.93046 14.829 8.27801 13.2703 8.27801 11.317C8.27801 9.3634 9.93076 7.80504 12.002 7.80504Z" fill="#D4BA99"/>
</svg>
